<svg xmlns="http://www.w3.org/2000/svg" viewBox="0 0 1440 320"><path fill="#a2d9ff" fill-opacity="1" d="M0,96L30,80C60,64,120,32,180,21.3C240,11,300,21,360,32C420,43,480,53,540,74.7C600,96,660,128,720,165.3C780,203,840,245,900,229.3C960,213,1020,139,1080,133.3C1140,128,1200,192,1260,208C1320,224,1380,192,1410,176L1440,160L1440,320L1410,320C1380,320,1320,320,1260,320C1200,320,1140,320,1080,320C1020,320,960,320,900,320C840,320,780,320,720,320C660,320,600,320,540,320C480,320,420,320,360,320C300,320,240,320,180,320C120,320,60,320,30,320L0,320Z"></path></svg>